Coordinates
version=1
nRows=16
nColumns=40
inDegrees=yes

Units are S.I. units (second, meters, Newtons, ...)
If the header above contains a line with 'inDegrees', this indicates whether rotational values are in degrees (yes) or radians (no).

endheader
time	pelvis_tilt	pelvis_list	pelvis_rotation	pelvis_tx	pelvis_ty	pelvis_tz	hip_flexion_r	hip_adduction_r	hip_rotation_r	knee_angle_r	knee_angle_r_beta	ankle_angle_r	subtalar_angle_r	mtp_angle_r	hip_flexion_l	hip_adduction_l	hip_rotation_l	knee_angle_l	knee_angle_l_beta	ankle_angle_l	subtalar_angle_l	mtp_angle_l	lumbar_extension	lumbar_bending	lumbar_rotation	arm_flex_r	arm_add_r	arm_rot_r	elbow_flex_r	pro_sup_r	wrist_flex_r	wrist_dev_r	arm_flex_l	arm_add_l	arm_rot_l	elbow_flex_l	pro_sup_l	wrist_flex_l	wrist_dev_l
      7.90500000	      4.12368210	      5.12699458	   -171.12959489	      0.30944177	      0.87509909	     -0.59083408	     20.22010689	     -9.15003852	    -19.72720159	     18.61438144	      0.32488224	      1.68727009	      0.00000000	      0.00000000	     27.57891743	    -14.47570352	     -1.45419188	     22.60801052	      0.39458422	      1.76627612	      0.00000000	      0.00000000	    -29.47956234	      4.08146179	     -1.22843127	     24.24993392	    -16.15414527	     42.06735968	     20.53957882	     79.87094084	      0.00000000	      0.00000000	     32.18177837	    -10.47822167	     49.74884563	     12.88032539	     45.01117744	      0.00000000	      0.00000000
      7.91000000	      4.00617881	      5.13557794	   -171.19635015	      0.30810035	      0.87578933	     -0.59088684	     19.84307618	     -9.00084219	    -19.69399674	     18.27383508	      0.31893859	      1.60755579	      0.00000000	      0.00000000	     27.17063015	    -14.52658013	     -1.50557556	     22.32815542	      0.38969983	      1.76196034	      0.00000000	      0.00000000	    -28.95472641	      3.99156803	     -1.20898899	     23.90551254	    -16.03484710	     41.99952353	     20.24993870	     80.47935327	      0.00000000	      0.00000000	     31.79912518	    -10.72851058	     50.84299112	     13.06435595	     45.73976915	      0.00000000	      0.00000000
      7.91500000	      3.77907438	      5.19635710	   -171.07935025	      0.30673383	      0.87660884	     -0.59061730	     19.29027923	     -8.85958643	    -20.02067506	     17.89958499	      0.31240669	      1.49694020	      0.00000000	      0.00000000	     26.73055585	    -14.56561136	     -1.38738328	     22.07354808	      0.38525609	      1.79432785	      0.00000000	      0.00000000	    -28.52684499	      4.05607095	     -1.29248740	     23.52387615	    -15.95994030	     41.80495207	     20.09682036	     80.66320065	      0.00000000	      0.00000000	     31.47418813	    -10.78918840	     51.50791629	     13.00027086	     46.38239214	      0.00000000	      0.00000000
      7.92000000	      3.93599957	      5.69260526	   -170.33030145	      0.30586431	      0.87657958	     -0.58932877	     19.03286624	     -8.57178083	    -21.01538782	     17.41494006	      0.30394804	      1.36992753	      0.00000000	      0.00000000	     27.23864215	    -14.58081590	      0.02305805	     22.18060961	      0.38712467	      1.91484799	      0.00000000	      0.00000000	    -27.58235125	      4.83074152	     -1.85515923	     23.13450225	    -15.66151645	     41.51234625	     19.53273263	     77.58472929	      0.00000000	      0.00000000	     31.04678217	    -10.55265238	     51.34681478	     12.67877957	     46.15475749	      0.00000000	      0.00000000
      7.92500000	      4.01069336	      6.01786329	   -170.02563224	      0.30451553	      0.87672783	     -0.58871882	     18.81905679	     -8.30813345	    -21.69436523	     17.11816305	      0.29876831	      1.40259582	      0.00000000	      0.00000000	     27.34001252	    -14.71663276	      0.66382010	     22.07570876	      0.38529380	      2.14295237	      0.00000000	      0.00000000	    -26.76052704	      5.22292927	     -2.10492209	     22.56562749	    -15.66464875	     41.21857872	     19.69015924	     76.57530672	      0.00000000	      0.00000000	     30.49162656	    -10.64757609	     51.20767751	     12.98002603	     46.11221651	      0.00000000	      0.00000000
      7.93000000	      3.00267070	      5.28546113	   -170.96321471	      0.30231479	      0.87921977	     -0.59020013	     17.50163079	     -8.41733675	    -20.76830816	     16.65293281	      0.29064851	      1.16584396	      0.00000000	      0.00000000	     25.23045135	    -14.80045127	     -1.54418429	     21.41868377	      0.37382655	      1.88921014	      0.00000000	      0.00000000	    -27.39375344	      4.06795675	     -1.30745516	     22.34901062	    -15.97357047	     42.06856997	     19.88399169	     80.40582688	      0.00000000	      0.00000000	     30.45493970	    -10.82071009	     52.83950320	     12.84330473	     46.83778988	      0.00000000	      0.00000000
      7.93500000	      3.26798357	      5.85982808	   -170.31455282	      0.30154291	      0.87886714	     -0.58906581	     17.43196061	     -7.99965118	    -21.54220553	     16.21333058	      0.28297600	      1.14023201	      0.00000000	      0.00000000	     25.87118261	    -14.93920413	     -0.11022704	     21.54203626	      0.37597946	      2.07674776	      0.00000000	      0.00000000	    -26.33316036	      4.88008302	     -1.81954636	     21.94455441	    -15.65249762	     41.65065846	     19.32145089	     76.84397695	      0.00000000	      0.00000000	     29.89827226	    -10.76690791	     52.57804856	     12.90511391	     46.58356475	      0.00000000	      0.00000000
      7.94000000	      2.56984063	      5.17490685	   -171.18460219	      0.29933206	      0.88071369	     -0.59042851	     16.50145533	     -8.21463669	    -20.68362177	     15.94554678	      0.27830229	      1.09795486	      0.00000000	      0.00000000	     24.16879108	    -14.93066249	     -2.14246184	     20.96310690	      0.36587524	      1.95077444	      0.00000000	      0.00000000	    -26.58483866	      3.77820551	     -1.27621085	     21.55654874	    -15.77809857	     41.58733494	     19.63998423	     81.06274283	      0.00000000	      0.00000000	     29.68571740	    -11.03583136	     53.54804126	     12.91870723	     47.64419904	      0.00000000	      0.00000000
      7.94500000	      2.40265972	      5.47240877	   -170.81937130	      0.29785009	      0.88118364	     -0.58986275	     15.95363022	     -7.91886694	    -21.41761884	     15.52881077	      0.27102888	      0.94933464	      0.00000000	      0.00000000	     24.08645905	    -15.12588138	     -1.67978403	     21.02617623	      0.36697600	      2.15650182	      0.00000000	      0.00000000	    -26.03096977	      4.18808138	     -1.56740960	     21.09880557	    -15.70505376	     41.34947711	     19.60063493	     79.89495656	      0.00000000	      0.00000000	     29.29160784	    -10.97456145	     53.68401235	     12.72121067	     47.73214056	      0.00000000	      0.00000000
      7.95000000	      1.96121151	      5.29676199	   -171.04197302	      0.29624816	      0.88235409	     -0.59015372	     15.22575184	     -7.88872033	    -21.27895828	     15.21483986	      0.26554905	      0.92501990	      0.00000000	      0.00000000	     23.15839199	    -15.21367028	     -2.41570964	     20.65350941	      0.36047174	      2.09988587	      0.00000000	      0.00000000	    -25.91602156	      3.89189007	     -1.38269857	     20.63017189	    -15.75224653	     40.89946000	     19.78716143	     81.09171728	      0.00000000	      0.00000000	     29.02559710	    -11.02935584	     54.15033960	     12.67813543	     48.42837511	      0.00000000	      0.00000000
      7.95500000	      1.54825418	      5.07054397	   -171.37562815	      0.29455943	      0.88351210	     -0.59065638	     14.54769514	     -7.86885394	    -20.90580556	     14.89133573	      0.25990284	      0.91636875	      0.00000000	      0.00000000	     22.18514493	    -15.27136244	     -3.27789201	     20.24392447	      0.35332314	      2.00764537	      0.00000000	      0.00000000	    -25.77862271	      3.49863228	     -1.25846885	     20.27908518	    -15.48713976	     40.21628118	     19.50076811	     81.65305865	      0.00000000	      0.00000000	     28.62617378	    -11.30646297	     54.27315677	     12.91672803	     49.46069882	      0.00000000	      0.00000000
      7.96000000	      1.52796771	      5.41475845	   -170.81058285	      0.29333031	      0.88369211	     -0.58976189	     14.16117259	     -7.59406676	    -21.69344046	     14.50560495	      0.25317057	      0.73304529	      0.00000000	      0.00000000	     22.35620572	    -15.41636823	     -2.51663188	     20.30581489	      0.35440333	      2.19681504	      0.00000000	      0.00000000	    -25.06088215	      4.03578925	     -1.75301018	     19.86439997	    -15.35142367	     39.98820588	     19.35916662	     79.77080220	      0.00000000	      0.00000000	     28.30584951	    -11.21739624	     54.36792961	     12.81938194	     49.48130389	      0.00000000	      0.00000000
      7.96500000	      1.72718177	      5.81868813	   -170.37643004	      0.29181104	      0.88350057	     -0.58901019	     14.09847767	     -7.28371465	    -22.46764844	     14.28395632	      0.24930207	      0.91091847	      0.00000000	      0.00000000	     22.74465635	    -15.64887059	     -1.92659067	     20.40316207	      0.35610236	      2.38709596	      0.00000000	      0.00000000	    -24.06812498	      4.55597022	     -2.21955123	     19.20829285	    -15.36496709	     39.59809908	     19.67186954	     78.13867013	      0.00000000	      0.00000000	     27.55777607	    -11.44977708	     54.07491940	     13.35685110	     49.39815928	      0.00000000	      0.00000000
      7.97000000	      0.32396893	      5.13699642	   -171.21895400	      0.28966909	      0.88643863	     -0.59043782	     12.37753666	     -7.43634791	    -21.76505009	     13.94295508	      0.24335047	      0.61739624	      0.00000000	      0.00000000	     20.12105372	    -15.73392010	     -4.24527271	     19.53234146	      0.34090367	      2.03275778	      0.00000000	      0.00000000	    -25.15752447	      3.56943602	     -1.51009886	     19.08792400	    -15.29125500	     39.15889423	     19.56268141	     81.73199357	      0.00000000	      0.00000000	     27.60952520	    -11.50994100	     55.12860767	     12.79498487	     50.40714445	      0.00000000	      0.00000000
      7.97500000	      0.45541370	      5.42589311	   -170.77522622	      0.28851417	      0.88644606	     -0.58975969	     12.19570754	     -7.15351059	    -22.20212820	     13.56002296	      0.23666705	      0.55380182	      0.00000000	      0.00000000	     20.34460158	    -15.82583595	     -3.46360240	     19.48910718	      0.34014909	      2.25927389	      0.00000000	      0.00000000	    -24.31681482	      3.97074047	     -2.01209259	     18.74331173	    -15.04194600	     38.91334560	     19.22756765	     80.28876242	      0.00000000	      0.00000000	     27.18452683	    -11.49808160	     55.09322637	     12.67051017	     50.36278568	      0.00000000	      0.00000000
      7.98000000	      0.16996362	      5.56027539	   -170.35827032	      0.28722928	      0.88716912	     -0.58905206	     11.54938434	     -6.98724260	    -22.78971083	     13.20190013	      0.23041662	      0.30236747	      0.00000000	      0.00000000	     19.99307388	    -15.91055804	     -3.18124071	     19.29525928	      0.33676580	      2.24459372	      0.00000000	      0.00000000	    -23.95898359	      4.24621682	     -2.42663281	     18.46738682	    -14.87580792	     38.73893854	     19.00534401	     79.23603270	      0.00000000	      0.00000000	     26.90523825	    -11.45431857	     55.53923822	     12.39652526	     50.45335788	      0.00000000	      0.00000000
